<svg width="48" height="49" fill="none" xmlns="http://www.w3.org/2000/svg"><path d="M14.34 34.463c1.02 0 1.96-.58 2.4-1.48l2.84-5.68c.28-.56.42-1.16.42-1.78v-9.06c0-1.1-.9-2-2-2h-8c-1.1 0-2 .9-2 2v8c0 1.1.9 2 2 2h4l-2.06 4.12c-.9 1.78.4 3.88 2.4 3.88Zm20 0c1.02 0 1.96-.58 2.4-1.48l2.84-5.68c.28-.56.42-1.16.42-1.78v-9.06c0-1.1-.9-2-2-2h-8c-1.1 0-2 .9-2 2v8c0 1.1.9 2 2 2h4l-2.06 4.12c-.9 1.78.4 3.88 2.4 3.88Z" fill="url(#a)"/><defs><linearGradient id="a" x1="24" y1="14.463" x2="24" y2="34.463" gradientUnits="userSpaceOnUse"><stop stop-color="#DA291C"/><stop offset="1" stop-color="#BF0D3E"/></linearGradient></defs></svg>
