<svg version="1.1" id="icons_1_" xmlns="http://www.w3.org/2000/svg" x="0" y="0" viewBox="0 0 46 47" style="enable-background:new 0 0 46 47" xml:space="preserve"><style>.st0{fill:none;stroke:#da291c;stroke-width:1.5;stroke-linecap:round;stroke-linejoin:round;stroke-miterlimit:10}</style><path class="st0" d="M43.4 11.3c1.7 6-4.4 10.7-11 10.7h-2.1v-5.2L15.7 27.2l14.7 11.5v-5.2h2.1C39.8 33.5 45 27 45 18.8S39.8 3.1 31.4 3.1M19.9 46v-9.4M14.6 32.4V46M14.6 11.5c2.4 0 4.2-1.7 4.2-4.2V5.2c0-2.5-1.7-4.2-4.2-4.2-2.4 0-4.2 1.7-4.2 4.2v2.1c0 2.4 1.8 4.2 4.2 4.2z"/><path class="st0" d="M22.7 17.2c-1.9-1.7-5.5-2.6-8.1-2.6-3.6 0-9.4 1.8-9.4 5.2v11.5M9.4 20.9v10.5M9.4 39.8V46M1 31.4h9.4v8.4H1z"/></svg>
