<svg version="1.1" id="icons_1_" xmlns="http://www.w3.org/2000/svg" x="0" y="0" viewBox="0 0 35 46" style="enable-background:new 0 0 35 46" xml:space="preserve"><style>.st0{fill:none;stroke:#da291c;stroke-width:1.5;stroke-linecap:round;stroke-linejoin:round;stroke-miterlimit:10}</style><path class="st0" d="M19.4 25.8h1.9c.6 0 1.6.4 1.9 1h1.9c.9 0 1.9.8 1.9 1.9h1.9c.9 0 1.9.8 1.9 1.9v10c0 2-1.9 3.1-1.9 4.4M19.4 29.7V19c0-1.1-.9-1.9-1.9-1.9s-1.9.9-1.9 1.9v14.5c-.7.6-1.8.5-2.3-.3l-1.6-2.4c-1.5-2.1-3.9-.9-3.9 0 0 0 2.9 6.8 3.3 7.5.7 1.1 4.4 5.4 4.4 6.2v.6M23.3 26.8v3.8M27 28.7v2.9M17.5 10.4c2.2 0 3.9-1.9 3.9-4.1V4.9c0-2.3-1.7-4.1-3.9-4.1s-3.9 1.9-3.9 4.1v1.4c0 2.2 1.7 4.1 3.9 4.1z"/><path class="st0" d="M25.2 18.1v-2.9c0-2.7-3.3-4.8-7.7-4.8s-7.7 2.2-7.7 4.8v2.9M28.6 9.4c1.9 0 3.4-1.7 3.4-3.7V4.5C32 2.4 30.6.8 28.6.8c-1.9 0-3.4 1.7-3.4 3.7v1.2c0 2 1.5 3.7 3.4 3.7zM25.2 10.3c.9-.6 2.1-.9 3.4-.9 3 0 5.3 1.7 5.3 3.9v2.9M6.4 9.4C4.5 9.4 3 7.7 3 5.7V4.5C3 2.4 4.4.8 6.4.8c1.9 0 3.4 1.7 3.4 3.7v1.2c0 2-1.5 3.7-3.4 3.7z"/><path class="st0" d="M10 10.4c-.9-.6-2.2-1-3.6-1-3 0-5.3 1.7-5.3 3.9v2.9"/></svg>
