<svg version="1.1" id="icons_1_" xmlns="http://www.w3.org/2000/svg" x="0" y="0" viewBox="0 0 46 47" style="enable-background:new 0 0 46 47" xml:space="preserve"><style>.st0{fill:none;stroke:#da291c;stroke-width:1.5;stroke-linecap:round;stroke-linejoin:round;stroke-miterlimit:10}</style><path class="st0" d="M11.6 12.5c2.6 0 4.8-2.2 4.8-4.9V6c0-2.7-2.2-4.9-4.7-4.9-2.6 0-4.8 2.2-4.8 4.9v1.6c0 2.7 2.2 4.9 4.7 4.9zM17.4 33.4c2.1 0 4.7-2.6 4.7-4.8v-6.7c0-4-3.7-6.6-6.7-6.6H7.7c-3 0-6.7 2.6-6.7 6.6v6.7c0 2.1 2.4 4.8 4.5 4.8M17.4 46V21M5.9 21v25M11.6 46V30.6M28.8 16.2v7.7h4.7"/><path class="st0" d="M20.2 10.2c2.5-1.6 5.4-2.5 8.6-2.5 9 0 16.3 7.3 16.3 16.3s-7.3 16.3-16.3 16.3c-3.2 0-6.1-.9-8.6-2.5"/><path class="st0" d="M21.9 14.9c1.9-1.5 4.3-2.4 6.9-2.4 6.3 0 11.5 5.2 11.5 11.5S35 35.5 28.8 35.5c-2.2 0-4.2-.7-6-1.8"/></svg>
