<svg version="1.1" id="icons_1_" xmlns="http://www.w3.org/2000/svg" x="0" y="0" viewBox="0 0 47 48" style="enable-background:new 0 0 47 48" xml:space="preserve"><style>.st0{fill:none;stroke:#da291c;stroke-width:1.5;stroke-linecap:round;stroke-linejoin:round;stroke-miterlimit:10}</style><path class="st0" d="M12 17V3c0-1.1.9-2 2-2h20c1.1 0 2 .9 2 2v4M36 24v21c0 1.1-.9 2-2 2H14c-1.1 0-2-.9-2-2V34"/><path class="st0" d="M45 22H31l-2.6 3.4c-.2.4-.6.6-1.1.6h0c-.7 0-1.3-.6-1.3-1.3V10c0-.6.4-1 1-1h18c.6 0 1 .4 1 1v11c0 .6-.4 1-1 1zM30 14h12M30 17h8M2 32h14l2.6 3.4c.2.4.6.6 1.1.6h0c.7 0 1.3-.6 1.3-1.3V20c0-.6-.4-1-1-1H2c-.6 0-1 .4-1 1v11c0 .6.4 1 1 1zM5 24h12M5 27h8M12 41h24M22 44h4"/></svg>
