<svg version="1.1" id="icons_1_" xmlns="http://www.w3.org/2000/svg" x="0" y="0" viewBox="0 0 49 44" style="enable-background:new 0 0 49 44" xml:space="preserve"><style>.st0{fill:none;stroke:#da291c;stroke-width:1.5;stroke-linecap:round;stroke-linejoin:round;stroke-miterlimit:10}</style><path class="st0" d="M29.6 24.6h5.5l6.8 7.2v-7.2H45c1.7 0 3.1-1.4 3.1-3.1V4.1C48.1 2.4 46.7 1 45 1H24.5c-1.7 0-3.1 1.4-3.1 3.1v4.1M30.6 9.2l8.2 8.2M38.8 9.2l-8.2 8.2"/><path class="st0" d="M26.5 15.3v17.4c0 1.7-1.4 3.1-3.1 3.1h-9.6L7.1 43v-7.2H4c-1.7 0-3.1-1.4-3.1-3.1V15.3c0-1.7 1.4-3.1 3.1-3.1h19.5c1.7.1 3 1.4 3 3.1z"/><path class="st0" d="m18.4 20.5-6.2 8.2-3.1-3.1"/></svg>
