<svg version="1.1" id="icons_1_" xmlns="http://www.w3.org/2000/svg" x="0" y="0" viewBox="0 0 46 48" style="enable-background:new 0 0 46 48" xml:space="preserve"><style>.st0{fill:none;stroke:#da291c;stroke-width:1.5;stroke-linecap:round;stroke-linejoin:round;stroke-miterlimit:10}</style><path class="st0" d="M16.1 39.5c.4-.4.8-1 2-1h14c1.1 0 7.2-6.1 8-7 .7-.8 4.1-5.8 5-8-.6-.8-2.1-1.4-4-1-1.8.4-2.8 1.7-4 4l-4.3 2.3"/><path class="st0" d="M22.1 32.5h8c4 0 4-5 0-5h-5.3c-.8 0-2.4-2-3.7-2h-5c-1.4 0-3 1.1-4 2l-4 4"/><path transform="rotate(-45.001 9.656 37.99)" style="fill:none;stroke:#da291c;stroke-width:1.5;stroke-linecap:round;stroke-linejoin:round;stroke-miterlimit:9.9997" d="M6.1 29.5h7.1v17H6.1z"/><path class="st0" d="m6.1 34.5 2 2M38.1 24.5v-1l-3-2h-3l-2-2-2 1h-2l-3 2h-3l-2 2v1M29.1 15.5c2.4-2.5 1.3-6.2 0-8-3.2-4.5-9-3.3-13.1-6-3 7.1.6 16.1 9.9 15"/><path class="st0" d="M30.1 19.5c-.8-7.5-6.8-9.3-10.7-12.6"/></svg>
