<svg version="1.1" id="icons_1_" xmlns="http://www.w3.org/2000/svg" x="0" y="0" viewBox="0 0 51 48" style="enable-background:new 0 0 51 48" xml:space="preserve"><style>.st0{fill:none;stroke:#da291c;stroke-width:1.5;stroke-linecap:round;stroke-linejoin:round;stroke-miterlimit:10}</style><path class="st0" d="M15.9 14.9c-5.3 0-9.6 2.9-9.6 6.4v11.8M15.9 11.7c2.5 0 4.3-1.7 4.3-4.3V5.3C20.2 2.8 18.5 1 16 1s-4.3 1.7-4.3 4.3v2.1c.1 2.6 1.7 4.3 4.2 4.3zM10.7 22.4v10.7M15.9 14.9c5.3 0 9.6 2.9 9.6 6.4v7.5c0 2.4-1.9 4.3-4.3 4.3h0M21.2 22.4V47M10.7 42.7V47M17 33.1V47M.9 33.1h11.8v9.6H.9zM41.5 16l-6.4 6.4-3.1-3.2-3.2 3.2 6.3 6.4 9.7-9.6z"/><path class="st0" d="M23.6 13.8c2.6-3.9 7-6.4 12-6.4 8 0 14.4 6.5 14.4 14.4s-6.5 14.4-14.4 14.4c-3.3 0-6.3-1.1-8.8-3"/></svg>
