<svg version="1.1" id="icons_1_" xmlns="http://www.w3.org/2000/svg" x="0" y="0" viewBox="0 0 35 46" style="enable-background:new 0 0 35 46" xml:space="preserve"><style>.st0{fill:none;stroke:#da291c;stroke-width:1.5;stroke-linecap:round;stroke-linejoin:round;stroke-miterlimit:10}</style><path class="st0" d="M7 1 1 7v37c0 .6.4 1 1 1h31c.6 0 1-.4 1-1V2c0-.6-.4-1-1-1H7z"/><path class="st0" d="M3 9h6V3M24 8v6h6c0-3.3-2.7-6-6-6z"/><path class="st0" d="M28 16c0 3.3-2.7 6-6 6s-6-2.7-6-6 2.7-6 6-6M5 15h8M5 19h8M22 30h8M22 34h8M22 38h6M5 23h5M14 40v-8h4v8M6 40v-5h4v5M10 40V28h4v12"/></svg>
